<svg width="26" height="26" fill="none" xmlns="http://www.w3.org/2000/svg"><path d="M21.215 10.65h-1.139c-.146 0-.25-.115-.313-.27a.351.351 0 0 1 0-.384l.846-.768a1.69 1.69 0 0 0 .386-1.893 1.732 1.732 0 0 0-.386-.565l-1.4-1.421a1.744 1.744 0 0 0-1.236-.512 1.754 1.754 0 0 0-1.237.512l-.804.767a.399.399 0 0 1-.428 0 .355.355 0 0 1-.23-.3v-1.07c0-.452-.177-.888-.495-1.213a1.76 1.76 0 0 0-1.207-.529h-2.025a1.77 1.77 0 0 0-1.244.51c-.33.326-.518.77-.52 1.233v1.13c0 .146-.115.25-.272.312a.357.357 0 0 1-.386 0l-.773-.84a1.801 1.801 0 0 0-1.242-.52 1.732 1.732 0 0 0-1.232.52l-1.43 1.39a1.732 1.732 0 0 0-.531 1.244 1.723 1.723 0 0 0 .53 1.245l.773.768a.392.392 0 0 1 0 .425.353.353 0 0 1-.303.228H3.842a1.76 1.76 0 0 0-1.24.51c-.33.327-.514.77-.514 1.233v1.96c0 .464.184.908.513 1.236a1.77 1.77 0 0 0 1.241.518H4.98c.146 0 .25.114.313.27a.351.351 0 0 1 0 .383l-.846.768a1.779 1.779 0 0 0-.522 1.234 1.712 1.712 0 0 0 .522 1.235l1.4 1.41a1.743 1.743 0 0 0 1.237.512 1.754 1.754 0 0 0 1.237-.512l.804-.767a.4.4 0 0 1 .428 0 .356.356 0 0 1 .23.3v1.131c.016.452.208.879.535 1.192a1.76 1.76 0 0 0 1.218.489h1.974a1.77 1.77 0 0 0 1.244-.51c.33-.327.517-.77.52-1.233v-1.13c0-.146.115-.25.271-.312a.356.356 0 0 1 .387 0l.793.799c.33.326.776.512 1.243.519a1.731 1.731 0 0 0 1.232-.52l1.399-1.39a1.731 1.731 0 0 0 .514-1.228 1.722 1.722 0 0 0-.514-1.23l-.763-.757a.351.351 0 0 1 0-.384.354.354 0 0 1 .303-.228h1.138a1.76 1.76 0 0 0 1.196-.528c.316-.323.493-.754.495-1.204v-2.013c0-.463-.184-.907-.513-1.236a1.77 1.77 0 0 0-1.24-.517Zm-8.687 6.358c-.723 0-1.429-.213-2.03-.612a3.636 3.636 0 0 1-1.346-1.63 3.609 3.609 0 0 1 .792-3.956 3.677 3.677 0 0 1 3.982-.787 3.65 3.65 0 0 1 1.64 1.337 3.614 3.614 0 0 1-.454 4.585 3.666 3.666 0 0 1-2.584 1.063Z" fill="#fff"/></svg>