<svg width="25" height="26" fill="none" xmlns="http://www.w3.org/2000/svg"><path d="M12.5 3c-2.06 0-4.074.606-5.787 1.744a10.365 10.365 0 0 0-3.837 4.645 10.288 10.288 0 0 0-.593 5.98 10.33 10.33 0 0 0 2.851 5.299 10.438 10.438 0 0 0 5.334 2.832c2.02.4 4.115.195 6.018-.589a10.402 10.402 0 0 0 4.675-3.812 10.303 10.303 0 0 0 .963-9.71 10.345 10.345 0 0 0-2.258-3.358 10.422 10.422 0 0 0-3.38-2.244A10.475 10.475 0 0 0 12.5 3Zm0 18.63a8.372 8.372 0 0 1-4.63-1.396 8.292 8.292 0 0 1-3.069-3.716 8.23 8.23 0 0 1-.474-4.784 8.264 8.264 0 0 1 2.28-4.24 8.35 8.35 0 0 1 4.267-2.265 8.383 8.383 0 0 1 4.815.47 8.322 8.322 0 0 1 3.74 3.05 8.242 8.242 0 0 1-1.037 10.455A8.36 8.36 0 0 1 12.5 21.63Z" fill="#fff"/><path d="M12.5 7.14c-.967 0-1.894.381-2.578 1.06a3.61 3.61 0 0 0-1.068 2.562c0 .274.11.538.305.732a1.045 1.045 0 0 0 1.473 0c.196-.194.306-.458.306-.732a1.546 1.546 0 0 1 .964-1.434 1.572 1.572 0 0 1 1.703.336 1.55 1.55 0 0 1 .339 1.692 1.57 1.57 0 0 1-1.444.958c-.276 0-.541.11-.736.303a1.032 1.032 0 0 0-.306.732v2.07c0 .275.11.538.306.732a1.045 1.045 0 0 0 1.473 0c.195-.194.305-.457.305-.732v-1.2a3.633 3.633 0 0 0 2.04-1.516 3.593 3.593 0 0 0-.69-4.691 3.65 3.65 0 0 0-2.392-.873ZM12.5 19.56c.575 0 1.042-.464 1.042-1.036 0-.571-.467-1.035-1.042-1.035s-1.042.464-1.042 1.035c0 .572.467 1.035 1.042 1.035Z" fill="#fff"/></svg>