<svg width="80" height="84" fill="none" xmlns="http://www.w3.org/2000/svg"><g filter="url('#filter0_d_0_69')" clip-path="url('#clip0_0_69')"><path fill-rule="evenodd" clip-rule="evenodd" d="M27.225 8.723c-.363.7-.679 1.47-.937 2.317-.979 3.524 0 9.269 0 9.269s-2.007-.338-1.566 3.089c.391 5.262 3.036 6.13 3.134 6.179 1.958 7.08 3.917 10.04 3.917 10.04s.708 3.138 0 4.634c-6.464 2.655-25.709 10.04-25.855 10.04C2.245 56.175 2 81 2 81h76s-.245-24.826-3.918-26.708c-.147 0-19.391-7.386-25.855-10.04-.709-1.497 0-4.635 0-4.635s1.958-2.96 3.917-10.04c.098-.049 2.742-.917 3.134-6.179.44-3.427-1.567-3.09-1.567-3.09s.98-5.744 0-9.268a13.66 13.66 0 0 0-.936-2.317h.153c-.145-1.816-.655-3.97-2.92-4.387-2.27-.408-2.535.212-3.644.059C45.254 4.242 43.934 1 41.874 1l-4.28.843c-2.06 0-1.742.611-2.852.765-1.11.152.225-.154-3.103.458-2.953.542-4.21 3.851-4.567 5.657h.153Z" fill="#FF9B13"/></g><defs><clipPath id="clip0_0_69"><path fill="#fff" d="M0 0h80v84H0z"/></clipPath><filter id="filter0_d_0_69" x="0" y="0" width="80" height="84" filterUnits="userSpaceOnUse" color-interpolation-filters="sRGB"><feFlood flood-opacity="0" result="BackgroundImageFix"/><feColorMatrix in="SourceAlpha" values="0 0 0 0 0 0 0 0 0 0 0 0 0 0 0 0 0 0 127 0" result="hardAlpha"/><feOffset dy="1"/><feGaussianBlur stdDeviation="1"/><feColorMatrix values="0 0 0 0 0 0 0 0 0 0 0 0 0 0 0 0 0 0 0.14 0"/><feBlend in2="BackgroundImageFix" result="effect1_dropShadow_0_69"/><feBlend in="SourceGraphic" in2="effect1_dropShadow_0_69" result="shape"/></filter></defs></svg>