<svg width="22" height="50" fill="none" xmlns="http://www.w3.org/2000/svg"><g clip-path="url('#clip0_0_56')" fill-rule="evenodd" clip-rule="evenodd"><path d="M0 49.82C12.393 48.338 22 37.792 22 25S12.393 1.662 0 .18v49.64Z" fill="#fff"/><path d="M7 31H6v-1H5v-1H4v-1H3v-1H2v-1H1v-2h1v-1h1v-1h1v-1h1v-1h1v-1h1v-1h1v-1h1v-1h2v1h1v2h-1v1h-1v1H9v1H8v1H7v1H6v2h1v1h1v1h1v1h1v1h1v1h1v2h-1v1H9v-1H8v-1H7v-1Z" fill="#FF9B13"/></g><defs><clipPath id="clip0_0_56"><path fill="#fff" d="M0 0h22v50H0z"/></clipPath></defs></svg>