<svg width="420" height="185" fill="none" xmlns="http://www.w3.org/2000/svg"><g clip-path="url('#clip0_0_134')" fill-rule="evenodd" clip-rule="evenodd"><path d="M400 154h1v4h-1v-4Zm-144 0h1v4h-1v-4Zm64 0h1v4h-1v-4Zm-144 0h1v4h-1v-4Zm-80 0h1v4h-1v-4Zm288 0h1v4h-1v-4Zm-144 0h1v4h-1v-4Zm64 0h1v4h-1v-4Zm-144 0h1v4h-1v-4Zm-80 0h1v4h-1v-4Zm272 0h1v4h-1v-4Zm-144 0h1v4h-1v-4Zm64 0h1v4h-1v-4Zm-144 0h1v4h-1v-4Zm-80 0h1v4h-1v-4Zm320 0h1v4h-1v-4Zm-144 0h1v4h-1v-4Zm64 0h1v4h-1v-4Zm-144 0h1v4h-1v-4Zm-80 0h1v4h-1v-4Zm272 0h1v4h-1v-4Zm-144 0h1v4h-1v-4Zm-80 0h1v4h-1v-4Zm-80 0h1v4h-1v-4Z" fill="#EEE"/><path d="M288 154h1v8h-1v-8Zm-224 0h1v8h-1v-8Zm112 0h1v8h-1v-8Z" fill="#999"/><path d="M400 154h1v8h-1v-8Z" fill="#FE7F13"/><path d="M0 0h410v1H0V0Zm0 30h410v1H0v-1Zm0 30h410v1H0v-1Zm0 30h410v1H0v-1Zm0 30h410v1H0v-1ZM0 180c0 2.761 3.134 5 7 5h406c3.866 0 7-2.239 7-5v-30H0v30Z" fill="#000" fill-opacity=".01"/><path opacity=".07" d="M0 151h420v-1H0v1Z" fill="#000"/></g><defs><clipPath id="clip0_0_134"><path fill="#fff" d="M0 0h420v185H0z"/></clipPath></defs></svg>