<svg width="192" height="82" fill="none" xmlns="http://www.w3.org/2000/svg"><g clip-path="url('#clip0_0_78')"><path d="M1 .5H.5v81h191V.5H1Z" fill="#fff" stroke="#EEE"/><path fill-rule="evenodd" clip-rule="evenodd" d="m171.165 18.875-6.098 10.643-.527-.224-9.35 1.18-.348.182-11.706 33.322-8.64-20.562-14.132-8.923-.44-.25-10.532 7.427-8.233-18.325-.969-.124-20.184 24.665c-5.346-4.445-14.183 1.777-21.201 1.42l-14.64-12.017-1.007-.139L26.1 59.077l-12.093-.562L7.636 46.87l-.73-.237L1 60.322V81h190V42.235l-12.035-.759-.481.157-7.319-22.759Z" fill="#EEE"/><path fill-rule="evenodd" clip-rule="evenodd" d="M190.937 43.24H191v-2l-11.39-.725-7.533-21.703-.945-.672c-.905.463-7.112 10.215-7.112 10.215l-8.884 1.123-.817.658L143.27 61.3l-8.176-18.307-.373-.434-14.288-9.16-1.103.015-9.9 6.741-7.878-17.564-1.687-.224-20.15 24.658-9.908-2.347-.54.022L58.6 48.165 44.273 36.133l-1.433.152L25.925 58.07l-11.655-.54-6.25-11.428-1.79.073L1 57.92v3.465c.357.012.719-.161.914-.6l5.321-11.95 5.55 10.145.832.52 12.732.59.836-.386L43.78 38.335l13.959 11.72.952.185 10.929-3.55 10.245 2.423 1.005-.34 19.52-23.888 7.703 17.175 1.475.417 10.342-7.037 13.48 8.64 9.073 20.32 1.855-.075L156 31.386l8.737-1.103.718-.456s3.964-6.23 5.305-8.706l7.177 20.678.882.67 12.118.771Z" fill="#31C462"/></g><defs><clipPath id="clip0_0_78"><path fill="#fff" d="M0 0h192v82H0z"/></clipPath></defs></svg>