<svg width="20" height="20" fill="none" xmlns="http://www.w3.org/2000/svg"><path fill-rule="evenodd" clip-rule="evenodd" d="M6.8 10a3.2 3.2 0 1 1 6.4 0 3.2 3.2 0 0 1-6.4 0Zm-4.134 2c.172.633.424 1.234.744 1.79l-.987.987c-.454.454-.447 1.2.017 1.663l1.12 1.12a1.176 1.176 0 0 0 1.664.017l.986-.987a7.55 7.55 0 0 0 1.79.744v1.49C8 19.474 8.537 20 9.2 20h1.6c.663 0 1.2-.527 1.2-1.176v-1.49a7.552 7.552 0 0 0 1.79-.744l.986.986c.455.455 1.2.448 1.664-.016l1.12-1.12a1.176 1.176 0 0 0 .017-1.664l-.987-.986c.32-.556.572-1.157.744-1.79h1.49c.65 0 1.176-.537 1.176-1.2V9.2c0-.663-.527-1.2-1.177-1.2h-1.489a7.56 7.56 0 0 0-.744-1.79l.986-.986c.455-.455.448-1.2-.016-1.664l-1.12-1.12a1.177 1.177 0 0 0-1.664-.017l-.986.987A7.555 7.555 0 0 0 12 2.666v-1.49C12 .526 11.463 0 10.8 0H9.2C8.537 0 8 .527 8 1.176v1.49a7.558 7.558 0 0 0-1.79.744l-.986-.987a1.176 1.176 0 0 0-1.664.017L2.44 3.56a1.177 1.177 0 0 0-.017 1.664l.987.986A7.556 7.556 0 0 0 2.666 8h-1.49C.526 8 0 8.537 0 9.2v1.6c0 .663.527 1.2 1.176 1.2h1.49Z" fill="#999"/></svg>