<svg width="12" height="12" fill="none" xmlns="http://www.w3.org/2000/svg"><path fill-rule="evenodd" clip-rule="evenodd" d="M10.415 8H1.66C1.336 9.414.683 11.053.29 12h11.35c-.636-1.261-1.013-2.857-1.225-4ZM2 7h8V5a3 3 0 0 0-3-3V1a1 1 0 0 0-2 0v1a3 3 0 0 0-3 3v2Zm1-1V5h6v1H3Zm2-2V3h2v1H5Z" fill="url('#paint0_linear_0_246')"/><defs><linearGradient id="paint0_linear_0_246" x1="12" y1="12" x2="12" y2="0" gradientUnits="userSpaceOnUse"><stop stop-color="#fff"/><stop offset="1" stop-color="#F4F4F4"/></linearGradient></defs></svg>