<svg width="380" height="120" fill="none" xmlns="http://www.w3.org/2000/svg"><g clip-path="url('#clip0_0_173')" fill-rule="evenodd" clip-rule="evenodd"><path d="M368 64v56h12V62a4 4 0 0 0-4-4h-4a4 4 0 0 0-4 4v2Z" fill="#FF9B13"/><path d="M32 76v44h12V76a4 4 0 0 0-4-4h-4a4 4 0 0 0-4 4Zm16-16v60h12V58a4 4 0 0 0-4-4h-4a4 4 0 0 0-4 4v2ZM16 84v36h12V82a4 4 0 0 0-4-4h-4a4 4 0 0 0-4 4v2Zm128-6v42h12V78a4 4 0 0 0-4-4h-4a4 4 0 0 0-4 4Zm-32-24v66h12V54a4 4 0 0 0-4-4h-4a4 4 0 0 0-4 4ZM64 4v116h12V4a4 4 0 0 0-4-4h-4a4 4 0 0 0-4 4Zm112 66v50h12V70a4 4 0 0 0-4-4h-4a4 4 0 0 0-4 4ZM96 46v74h12V46a4 4 0 0 0-4-4h-4a4 4 0 0 0-4 4Zm64 40v34h12V86a4 4 0 0 0-4-4h-4a4 4 0 0 0-4 4Zm-32-16v50h12V68a4 4 0 0 0-4-4h-4a4 4 0 0 0-4 4v2ZM80 22v98h12V20a4 4 0 0 0-4-4h-4a4 4 0 0 0-4 4v2Zm112 24v74h12V44a4 4 0 0 0-4-4h-4a4 4 0 0 0-4 4v2Zm112 22v52h12V68a4 4 0 0 0-4-4h-4a4 4 0 0 0-4 4Zm-48 8v44h12V76a4 4 0 0 0-4-4h-4a4 4 0 0 0-4 4Zm-32 16v28h12V92a4 4 0 0 0-4-4h-4a4 4 0 0 0-4 4Zm112-28v56h12V64a4 4 0 0 0-4-4h-4a4 4 0 0 0-4 4Zm-48-12v68h12V50a4 4 0 0 0-4-4h-4a4 4 0 0 0-4 4v2Zm-80 24v44h12V76a4 4 0 0 0-4-4h-4a4 4 0 0 0-4 4Zm112-28v72h12V46a4 4 0 0 0-4-4h-4a4 4 0 0 0-4 4v2Zm-48 12v60h12V58a4 4 0 0 0-4-4h-4a4 4 0 0 0-4 4v2Zm-32 24v36h12V82a4 4 0 0 0-4-4h-4a4 4 0 0 0-4 4v2Zm112 0v36h12V82a4 4 0 0 0-4-4h-4a4 4 0 0 0-4 4v2ZM0 76v44h12V76a4 4 0 0 0-4-4H4a4 4 0 0 0-4 4Z" fill="#124570"/><path d="M288 98v22h12V98a4 4 0 0 0-4-4h-4a4 4 0 0 0-4 4Zm16-16v38h12V80a4 4 0 0 0-4-4h-4a4 4 0 0 0-4 4v2Zm-32 24v14h12v-16a4 4 0 0 0-4-4h-4a4 4 0 0 0-4 4v2Zm96 10v4h12v-4a4 4 0 0 0-4-4h-4a4 4 0 0 0-4 4Zm-48-20v24h12V96a4 4 0 0 0-4-4h-4a4 4 0 0 0-4 4Zm32 12v12h12v-12a4 4 0 0 0-4-4h-4a4 4 0 0 0-4 4Zm-16 6v6h12v-8a4 4 0 0 0-4-4h-4a4 4 0 0 0-4 4v2Zm-80-16v22h12V98a4 4 0 0 0-4-4h-4a4 4 0 0 0-4 4Zm-240 2v20h12v-20a4 4 0 0 0-4-4h-4a4 4 0 0 0-4 4Zm32 2v18h12v-18a4 4 0 0 0-4-4h-4a4 4 0 0 0-4 4Zm-16 6v12h12v-12a4 4 0 0 0-4-4h-4a4 4 0 0 0-4 4Zm-32-6v18h12v-20a4 4 0 0 0-4-4H4a4 4 0 0 0-4 4v2Zm64-24v42h12V76a4 4 0 0 0-4-4h-4a4 4 0 0 0-4 4v2Zm112 37v5h12v-5a4 4 0 0 0-4-4h-4a4 4 0 0 0-4 4Zm-48-17v22h12V98a4 4 0 0 0-4-4h-4a4 4 0 0 0-4 4Zm-32 16v6h12v-6a4 4 0 0 0-4-4h-4a4 4 0 0 0-4 4Zm112-3v9h12v-9a4 4 0 0 0-4-4h-4a4 4 0 0 0-4 4Zm-48-12v21h12V97a4 4 0 0 0-4-4h-4a4 4 0 0 0-4 4v2Zm-80-1v22h12V98a4 4 0 0 0-4-4h-4a4 4 0 0 0-4 4Zm112-3v25h12V93a4 4 0 0 0-4-4h-4a4 4 0 0 0-4 4v2Zm-48 12v13h12v-15a4 4 0 0 0-4-4h-4a4 4 0 0 0-4 4v2Zm-32-1v14h12v-16a4 4 0 0 0-4-4h-4a4 4 0 0 0-4 4v2Zm112 0v14h12v-16a4 4 0 0 0-4-4h-4a4 4 0 0 0-4 4v2Zm16-12v26h12V92a4 4 0 0 0-4-4h-4a4 4 0 0 0-4 4v2Z" fill="#2398F4"/></g><defs><clipPath id="clip0_0_173"><path fill="#fff" d="M0 0h380v120H0z"/></clipPath></defs></svg>