<svg width="501" height="60" fill="none" xmlns="http://www.w3.org/2000/svg"><g clip-path="url('#clip0_5_30')"><g filter="url('#filter0_d_5_30')"><path fill-rule="evenodd" clip-rule="evenodd" d="M459 41a3 3 0 0 1 3-3h6a3 3 0 0 1 3 3v12a3 3 0 0 1-3 3h-6a3 3 0 0 1-3-3V41Zm14-15a3 3 0 0 1 3-3h6a3 3 0 0 1 3 3v27a3 3 0 0 1-3 3h-6a3 3 0 0 1-3-3V26Zm14-15a3 3 0 0 1 3-3h6a3 3 0 0 1 3 3v42a3 3 0 0 1-3 3h-6a3 3 0 0 1-3-3V11Z" fill="url('#paint0_linear_5_30')"/></g><g filter="url('#filter1_d_5_30')"><path fill-rule="evenodd" clip-rule="evenodd" d="M392 38v6h6v-2h-4v-4h-2Zm3-2v2h1v1h1v1h1v1h2v-1h1v-1h1v-1h1v-1h1v-1h1v-1h1v-1h1v-1h1v-1h1v-1h1v-1h1v-1h1v-1h1v-2h-1v-1h-1v-1h-1v-1h-2v1h-1v1h-1v1h-1v1h-1v1h-1v1h-1v1h-1v1h-1v1h-1v1h-1v1h-1v1h-1v1h-1ZM370 8v40a4 4 0 0 0 4 4h30a4 4 0 0 0 4-4V35h-1v1h-1v1h-1v11a1 1 0 0 1-1 1h-30a1 1 0 0 1-1-1V8a1 1 0 0 1 1-1h18v13h13v4h1v-1h1v-1h1v-5L395 4h-21a4 4 0 0 0-4 4Z" fill="url('#paint1_linear_5_30')"/></g><g filter="url('#filter2_d_5_30')"><path fill-rule="evenodd" clip-rule="evenodd" d="M281.051 15.085a4.034 4.034 0 1 1 8.068 0 4.034 4.034 0 0 1-8.068 0ZM275 9.035v18.153L299.113 51.3c2.279 2.279 5.989 2.264 8.286-.034l13.868-13.868c2.297-2.297 2.313-6.007.034-8.286L297.188 5h-18.154A4.034 4.034 0 0 0 275 9.034Z" fill="url('#paint2_linear_5_30')"/></g><g filter="url('#filter3_d_5_30')"><path fill-rule="evenodd" clip-rule="evenodd" d="M198.46 44.8c.492.13 1.008.2 1.54.2h14l13 10V45h3a6 6 0 0 0 6-6V23a6 6 0 0 0-6-6h-5v16a8 8 0 0 1-8 8h-13.6l-4.94 3.8ZM181 15v18a6 6 0 0 0 6 6h2v10l13-10h15a6 6 0 0 0 6-6V15a6 6 0 0 0-6-6h-30a6 6 0 0 0-6 6Z" fill="url('#paint3_linear_5_30')"/></g><g filter="url('#filter4_d_5_30')"><path fill-rule="evenodd" clip-rule="evenodd" d="M149 50a2 2 0 0 0 1.97-1.65c-.082-3.237-.378-10.15-1.406-10.678-.054 0-7.107-2.71-9.476-3.685-.26-.55 0-1.702 0-1.702s.718-1.086 1.435-3.685c.036-.018 1.006-.337 1.149-2.268.162-1.259-.574-1.134-.574-1.134s.359-2.11 0-3.403a5.07 5.07 0 0 0-.343-.85h.056c-.053-.667-.24-1.458-1.07-1.61-.833-.15-.93.077-1.336.02-.407-.055-.891-1.245-1.646-1.245l-1.568.31c-.755 0-.639.223-1.046.28-.406.056.083-.057-1.137.168-1.082.199-1.543 1.414-1.674 2.077h.056c-.133.257-.249.54-.343.85-.359 1.294 0 3.403 0 3.403s-.736-.125-.574 1.134c.143 1.931 1.112 2.25 1.148 2.268.718 2.599 1.436 3.685 1.436 3.685l.051.292c2.993 1.156 5.659 2.169 5.698 2.169 1.839.941 1.961 15.254 1.961 15.254H149ZM92.436 37.672c-1.028.528-1.324 7.441-1.406 10.678A2 2 0 0 0 93 50h6.84s.123-14.313 1.962-15.254c.037 0 2.865-.964 6.075-2.089.032-.22.066-.371.066-.371s.718-1.087 1.436-3.686c.036-.018 1.005-.337 1.148-2.268.162-1.259-.574-1.134-.574-1.134s.359-2.11 0-3.403a4.988 4.988 0 0 0-.343-.85h.056c-.053-.667-.24-1.458-1.07-1.61-.832-.15-.929.077-1.336.02-.406-.055-.891-1.245-1.646-1.245l-1.568.31c-.755 0-.639.223-1.045.28-.407.056.082-.057-1.138.168-1.082.199-1.543 1.414-1.674 2.077h.056c-.133.257-.248.54-.343.85-.359 1.294 0 3.403 0 3.403s-.736-.125-.574 1.134c.144 1.931 1.113 2.25 1.149 2.268.717 2.599 1.435 3.685 1.435 3.685s.26 1.152 0 1.702c-2.369.974-9.422 3.685-9.476 3.685Zm21.971-23.81c-.182.35-.34.735-.469 1.158-.49 1.762 0 4.634 0 4.634s-1.005-.169-.785 1.545c.197 2.63 1.521 3.065 1.57 3.09.981 3.54 1.961 5.02 1.961 5.02s.355 1.569 0 2.317c-3.236 1.327-12.873 5.02-12.946 5.02-1.839.941-1.962 13.354-1.962 13.354h38.056s-.123-12.413-1.962-13.354c-.073 0-9.71-3.693-12.947-5.02-.354-.748 0-2.317 0-2.317s.981-1.48 1.962-5.02c.049-.025 1.373-.46 1.569-3.09.221-1.714-.784-1.545-.784-1.545s.49-2.872 0-4.634a6.89 6.89 0 0 0-.469-1.158h.076c-.072-.908-.327-1.986-1.461-2.194-1.138-.204-1.27.106-1.825.03-.556-.077-1.217-1.698-2.249-1.698l-2.142.422c-1.032 0-.873.305-1.429.382-.555.076.113-.077-1.554.229-1.478.271-2.108 1.926-2.287 2.829h.077Z" fill="url('#paint4_linear_5_30')"/></g><g filter="url('#filter5_d_5_30')"><path fill-rule="evenodd" clip-rule="evenodd" d="M10.15 38.505a22.086 22.086 0 0 0 10.345 10.34 7.5 7.5 0 1 0-10.345-10.34ZM15 42.5a1.5 1.5 0 0 1 1.5-1.5c.24 0 5.5-3 5.5-3s-4 4.144-4 4.5a1.5 1.5 0 1 1-3 0Zm24.505 6.345a22.085 22.085 0 0 0 10.345-10.34 7.5 7.5 0 1 0-10.345 10.34ZM42 42.5c0-.354-4.011-4.5-4.011-4.5s5.268 3 5.511 3a1.5 1.5 0 1 1-1.5 1.5ZM12 29c0 1.375.153 2.713.445 4h35.11A18.06 18.06 0 0 0 48 29c0-9.941-8.059-18-18-18s-18 8.059-18 18Zm2 0a2 2 0 1 1 4 0 2 2 0 0 1-4 0Zm15-15a1 1 0 1 1 2 0 1 1 0 0 1-2 0Zm-8 2a1 1 0 1 1 2 0 1 1 0 0 1-2 0Zm16 0a1 1 0 1 1 2 0 1 1 0 0 1-2 0Zm-21 5a1 1 0 1 1 2 0 1 1 0 0 1-2 0Zm26 0a1 1 0 1 1 2 0 1 1 0 0 1-2 0Zm0 8a2 2 0 1 1 4 0 2 2 0 0 1-4 0Zm-15 0 .005-.21-7.04-5.719s4.947 2.175 8.305 3.479A3 3 0 1 1 27 29ZM2 29c0 15.464 12.536 28 28 28s28-12.536 28-28S45.464 1 30 1 2 13.536 2 29Zm4 0C6 15.745 16.745 5 30 5s24 10.745 24 24-10.745 24-24 24S6 42.255 6 29Z" fill="url('#paint5_linear_5_30')"/></g></g><defs><linearGradient id="paint0_linear_5_30" x1="499" y1="56" x2="499" y2="8" gradientUnits="userSpaceOnUse"><stop stop-color="#93F8B8"/><stop offset="1" stop-color="#3C6"/></linearGradient><linearGradient id="paint1_linear_5_30" x1="413" y1="52" x2="413" y2="4" gradientUnits="userSpaceOnUse"><stop stop-color="#93F8B8"/><stop offset="1" stop-color="#3C6"/></linearGradient><linearGradient id="paint2_linear_5_30" x1="323" y1="53" x2="323" y2="5" gradientUnits="userSpaceOnUse"><stop stop-color="#93F8B8"/><stop offset="1" stop-color="#3C6"/></linearGradient><linearGradient id="paint3_linear_5_30" x1="236" y1="55" x2="236" y2="9" gradientUnits="userSpaceOnUse"><stop stop-color="#93F8B8"/><stop offset="1" stop-color="#3C6"/></linearGradient><linearGradient id="paint4_linear_5_30" x1="150.97" y1="50" x2="150.97" y2="10" gradientUnits="userSpaceOnUse"><stop stop-color="#93F8B8"/><stop offset="1" stop-color="#3C6"/></linearGradient><linearGradient id="paint5_linear_5_30" x1="58" y1="57" x2="58" y2="1" gradientUnits="userSpaceOnUse"><stop stop-color="#93F8B8"/><stop offset="1" stop-color="#3C6"/></linearGradient><filter id="filter0_d_5_30" x="457" y="7" width="44" height="52" filterUnits="userSpaceOnUse" color-interpolation-filters="sRGB"><feFlood flood-opacity="0" result="BackgroundImageFix"/><feColorMatrix in="SourceAlpha" values="0 0 0 0 0 0 0 0 0 0 0 0 0 0 0 0 0 0 127 0" result="hardAlpha"/><feOffset dy="1"/><feGaussianBlur stdDeviation="1"/><feColorMatrix values="0 0 0 0 0.0470588 0 0 0 0 0.168627 0 0 0 0 0.270588 0 0 0 0.5 0"/><feBlend in2="BackgroundImageFix" result="effect1_dropShadow_5_30"/><feBlend in="SourceGraphic" in2="effect1_dropShadow_5_30" result="shape"/></filter><filter id="filter1_d_5_30" x="368" y="3" width="47" height="52" filterUnits="userSpaceOnUse" color-interpolation-filters="sRGB"><feFlood flood-opacity="0" result="BackgroundImageFix"/><feColorMatrix in="SourceAlpha" values="0 0 0 0 0 0 0 0 0 0 0 0 0 0 0 0 0 0 127 0" result="hardAlpha"/><feOffset dy="1"/><feGaussianBlur stdDeviation="1"/><feColorMatrix values="0 0 0 0 0.0470588 0 0 0 0 0.168627 0 0 0 0 0.270588 0 0 0 0.5 0"/><feBlend in2="BackgroundImageFix" result="effect1_dropShadow_5_30"/><feBlend in="SourceGraphic" in2="effect1_dropShadow_5_30" result="shape"/></filter><filter id="filter2_d_5_30" x="273" y="4" width="52" height="52" filterUnits="userSpaceOnUse" color-interpolation-filters="sRGB"><feFlood flood-opacity="0" result="BackgroundImageFix"/><feColorMatrix in="SourceAlpha" values="0 0 0 0 0 0 0 0 0 0 0 0 0 0 0 0 0 0 127 0" result="hardAlpha"/><feOffset dy="1"/><feGaussianBlur stdDeviation="1"/><feColorMatrix values="0 0 0 0 0.0470588 0 0 0 0 0.168627 0 0 0 0 0.270588 0 0 0 0.5 0"/><feBlend in2="BackgroundImageFix" result="effect1_dropShadow_5_30"/><feBlend in="SourceGraphic" in2="effect1_dropShadow_5_30" result="shape"/></filter><filter id="filter3_d_5_30" x="179" y="8" width="59" height="50" filterUnits="userSpaceOnUse" color-interpolation-filters="sRGB"><feFlood flood-opacity="0" result="BackgroundImageFix"/><feColorMatrix in="SourceAlpha" values="0 0 0 0 0 0 0 0 0 0 0 0 0 0 0 0 0 0 127 0" result="hardAlpha"/><feOffset dy="1"/><feGaussianBlur stdDeviation="1"/><feColorMatrix values="0 0 0 0 0.0470588 0 0 0 0 0.168627 0 0 0 0 0.270588 0 0 0 0.5 0"/><feBlend in2="BackgroundImageFix" result="effect1_dropShadow_5_30"/><feBlend in="SourceGraphic" in2="effect1_dropShadow_5_30" result="shape"/></filter><filter id="filter4_d_5_30" x="89.03" y="9" width="63.94" height="44" filterUnits="userSpaceOnUse" color-interpolation-filters="sRGB"><feFlood flood-opacity="0" result="BackgroundImageFix"/><feColorMatrix in="SourceAlpha" values="0 0 0 0 0 0 0 0 0 0 0 0 0 0 0 0 0 0 127 0" result="hardAlpha"/><feOffset dy="1"/><feGaussianBlur stdDeviation="1"/><feColorMatrix values="0 0 0 0 0.0470588 0 0 0 0 0.168627 0 0 0 0 0.270588 0 0 0 0.5 0"/><feBlend in2="BackgroundImageFix" result="effect1_dropShadow_5_30"/><feBlend in="SourceGraphic" in2="effect1_dropShadow_5_30" result="shape"/></filter><filter id="filter5_d_5_30" x="0" y="0" width="60" height="60" filterUnits="userSpaceOnUse" color-interpolation-filters="sRGB"><feFlood flood-opacity="0" result="BackgroundImageFix"/><feColorMatrix in="SourceAlpha" values="0 0 0 0 0 0 0 0 0 0 0 0 0 0 0 0 0 0 127 0" result="hardAlpha"/><feOffset dy="1"/><feGaussianBlur stdDeviation="1"/><feColorMatrix values="0 0 0 0 0.0470588 0 0 0 0 0.168627 0 0 0 0 0.270588 0 0 0 0.5 0"/><feBlend in2="BackgroundImageFix" result="effect1_dropShadow_5_30"/><feBlend in="SourceGraphic" in2="effect1_dropShadow_5_30" result="shape"/></filter><clipPath id="clip0_5_30"><path fill="#fff" d="M0 0h501v60H0z"/></clipPath></defs></svg>