<svg width="14" height="23" fill="none" xmlns="http://www.w3.org/2000/svg"><g clip-path="url('#clip0_5_92')"><path d="M2.66 15c-.546-2.383-2.019-5.402-1.626-4.677C.519 9.362 0 8.273 0 7.118 0 3.233 2.98 0 7.01 0h.391C11.431 0 14 3.233 14 7.118c0 1.164-.467 2.262-.986 3.229-.869 1.316-1.348 3.301-1.599 4.653H2.66ZM11 16v2a3 3 0 0 1-3 3v1a1 1 0 1 1-2 0v-1a3 3 0 0 1-3-3v-2h8Zm-7 2h6v-1H4v1Zm2 2h2v-1H6v1Z" fill="url('#paint0_linear_5_92')"/></g><defs><linearGradient id="paint0_linear_5_92" x1="7" y1="0" x2="7" y2="23" gradientUnits="userSpaceOnUse"><stop stop-color="#3C6"/><stop offset="1" stop-color="#2CB25A"/></linearGradient><clipPath id="clip0_5_92"><path fill="#fff" d="M0 0h14v23H0z"/></clipPath></defs></svg>