<svg width="22" height="50" fill="none" xmlns="http://www.w3.org/2000/svg"><g clip-path="url('#clip0_0_53')" fill-rule="evenodd" clip-rule="evenodd"><path d="M22 49.82C9.607 48.338 0 37.792 0 25S9.607 1.662 22 .18v49.64Z" fill="#fff"/><path d="M15 31h1v-1h1v-1h1v-1h1v-1h1v-1h1v-2h-1v-1h-1v-1h-1v-1h-1v-1h-1v-1h-1v-1h-1v-1h-1v-1h-2v1h-1v2h1v1h1v1h1v1h1v1h1v1h1v2h-1v1h-1v1h-1v1h-1v1h-1v1h-1v2h1v1h2v-1h1v-1h1v-1Z" fill="#FF9B13"/></g><defs><clipPath id="clip0_0_53"><path fill="#fff" d="M0 0h22v50H0z"/></clipPath></defs></svg>