<svg width="20" height="20" fill="none" xmlns="http://www.w3.org/2000/svg"><path fill-rule="evenodd" clip-rule="evenodd" d="M6.638 2.027a3.586 3.586 0 0 0-.246.609c-.258.925 0 2.432 0 2.432s-.529-.088-.413.811c.103 1.382.8 1.61.825 1.622.516 1.859 1.031 2.636 1.031 2.636s.186.824 0 1.216c-1.701.697-6.765 2.636-6.804 2.636C.303 14.361.087 18.153.025 20h19.95c-.062-1.847-.278-5.639-1.006-6.011-.039 0-5.103-1.939-6.804-2.636-.186-.392 0-1.216 0-1.216s.515-.777 1.03-2.636c.027-.012.723-.24.826-1.622.116-.9-.413-.81-.413-.81s.258-1.508 0-2.433a3.567 3.567 0 0 0-.246-.609h.04c-.038-.476-.172-1.042-.768-1.151-.598-.107-.667.055-.96.015-.291-.04-.639-.891-1.18-.891L9.366.221c-.542 0-.459.16-.75.201-.293.04.059-.04-.817.12-.777.143-1.108 1.011-1.202 1.485h.04Z" fill="#CCC"/></svg>