<svg width="80" height="80" fill="none" xmlns="http://www.w3.org/2000/svg"><g clip-path="url('#clip0_0_104')" fill-rule="evenodd" clip-rule="evenodd"><path d="m40.043 39.933 16.05 36.563C74.904 68.233 84.3 47.47 78.1 27.879L40.043 39.933Z" fill="#2498F4"/><path d="M40.043 39.933 78.1 27.879C74.747 17.286 68.11 9.441 58.22 4.381L40.043 39.933Z" fill="#3A599B"/><path d="M40.043 39.933 58.221 4.381C52.313 1.358 46.68 0 40.043 0v39.933Z" fill="#3C6"/><path d="M40.043 39.933V0C23.41 0 9.314 9.494 3.057 24.911-3.2 40.33.291 56.965 12.217 68.564c11.926 11.6 28.647 14.622 43.877 7.932l-16.05-36.563Z" fill="#134670"/><path d="M23.41 40.266c0-9.19 7.447-16.639 16.633-16.639s16.633 7.45 16.633 16.639c0 9.19-7.447 16.638-16.633 16.638S23.41 49.455 23.41 40.266Z" fill="#fff"/></g><defs><clipPath id="clip0_0_104"><path fill="#fff" d="M0 0h80v80H0z"/></clipPath></defs></svg>