<svg width="80" height="80" fill="none" xmlns="http://www.w3.org/2000/svg"><g clip-path="url('#clip0_0_96')" fill-rule="evenodd" clip-rule="evenodd"><path d="m40.01 39.972 7.68 39.224c14.037-2.765 24.69-11.842 29.676-25.29 4.987-13.447 2.838-27.3-5.987-38.592L40.011 39.972Z" fill="#2298F4"/><path d="m40.01 39.972 31.37-24.658C67 9.711 62.051 5.917 55.513 3.148L40.01 39.972Z" fill="#3A599B"/><path d="M40.01 39.972 55.515 3.148C50.355.964 45.608 0 40.01 0v39.972Z" fill="#32CC66"/><path d="M40.01 39.972V0C24.43 0 11.183 8.255 4.28 22.263c-6.903 14.01-5.393 29.578 4.071 41.99 9.465 12.413 24.05 17.953 39.339 14.943l-7.68-39.224Z" fill="#124570"/><path d="M23.41 40.266c0-9.19 7.447-16.639 16.633-16.639s16.633 7.45 16.633 16.639c0 9.19-7.447 16.639-16.633 16.639s-16.633-7.45-16.633-16.64Z" fill="#fff"/></g><defs><clipPath id="clip0_0_96"><path fill="#fff" d="M0 0h80v80H0z"/></clipPath></defs></svg>