<svg width="260" height="35" fill="none" xmlns="http://www.w3.org/2000/svg"><g clip-path="url('#clip0_0_340')" fill-rule="evenodd" clip-rule="evenodd"><path d="M0 3a3 3 0 0 1 3-3h254a3 3 0 0 1 3 3v29a3 3 0 0 1-3 3H3a3 3 0 0 1-3-3V3Z" fill="#2DB55B"/><path d="M1 3a2 2 0 0 1 2-2h254a2 2 0 0 1 2 2v29a2 2 0 0 1-2 2H3a2 2 0 0 1-2-2V3Z" fill="#F4F4F4"/><path d="M230 16.5a6.5 6.5 0 1 1 13 0 6.5 6.5 0 0 1-13 0Zm-3 0a9.5 9.5 0 0 0 15.33 7.5h.67v1h1v1h1v1h1v1h1v1h1v-1h1v-1h1v-1h-1v-1h-1v-1h-1v-1h-1v-1h-1v-1h-.13a9.454 9.454 0 0 0 1.13-4.5 9.5 9.5 0 0 0-9.5-9.5 9.5 9.5 0 0 0-9.5 9.5Z" fill="#2498F4"/></g><defs><clipPath id="clip0_0_340"><path fill="#fff" d="M0 0h260v35H0z"/></clipPath></defs></svg>